<svg width="134" height="69" viewBox="0 0 134 69" fill="none" xmlns="http://www.w3.org/2000/svg">
<path fill-rule="evenodd" clip-rule="evenodd" d="M82.7768 12.0197C82.8967 12.1901 82.9998 12.3737 83.0839 12.5686C88.0438 13.9067 91.6952 18.3349 91.6952 23.5771C91.6952 29.8757 86.4243 35 79.9455 35C76.563 35 73.5104 33.6028 71.3646 31.3715H63.2193C61.4662 31.3715 60.04 29.9849 60.04 28.2806C60.04 27.3018 60.5109 26.4283 61.2436 25.8616C60.5109 25.2949 60.04 24.4215 60.04 23.4426C60.04 22.4638 60.5109 21.5904 61.2436 21.0237C60.5109 20.457 60.04 19.5835 60.04 18.6047C60.04 17.6259 60.5109 16.7525 61.2436 16.1857C60.5109 15.619 60.04 14.7456 60.04 13.7668C60.04 12.0625 61.4662 10.6759 63.2193 10.6759H65.0218C64.6699 10.1785 64.4634 9.57679 64.4634 8.92884C64.4634 8.28089 64.67 7.67917 65.0218 7.18181H59.487C57.734 7.18181 56.3077 5.7952 56.3077 4.0909C56.3077 2.38661 57.734 1 59.487 1H76.4205C78.1735 1 79.5998 2.38661 79.5998 4.0909C79.5998 4.73885 79.3932 5.34057 79.0413 5.83794H84.5762C86.3292 5.83794 87.7555 7.22454 87.7555 8.92884C87.7555 10.6331 86.3292 12.0197 84.5762 12.0197H82.7768ZM86.3732 8.92884C86.3732 7.96555 85.5671 7.18181 84.5762 7.18181H67.6427C66.6518 7.18181 65.8457 7.96555 65.8457 8.92884C65.8457 9.89213 66.6518 10.6759 67.6427 10.6759H80.1527H84.5762C85.5671 10.6759 86.3732 9.89213 86.3732 8.92884ZM57.69 4.0909C57.69 5.05419 58.4961 5.83794 59.487 5.83794H76.4205C77.4114 5.83794 78.2175 5.05419 78.2175 4.0909C78.2175 3.12762 77.4114 2.34387 76.4205 2.34387H59.487C58.4961 2.34387 57.69 3.12762 57.69 4.0909ZM80.1527 12.0197H63.2193C62.2285 12.0197 61.4223 12.8035 61.4223 13.7668C61.4223 14.7301 62.2285 15.5138 63.2193 15.5138H71.6309C73.7592 13.4395 76.7008 12.1542 79.9455 12.1542C80.2794 12.1542 80.6099 12.1686 80.9369 12.1953C80.6977 12.0826 80.4311 12.0197 80.1527 12.0197ZM70.4499 16.8577H63.2193C62.2284 16.8577 61.4223 17.6414 61.4223 18.6047C61.4223 19.5681 62.2284 20.3517 63.2193 20.3517H68.6734C69.0586 19.0814 69.6653 17.9027 70.4499 16.8577ZM68.356 21.6956H63.2193C62.2284 21.6956 61.4223 22.4793 61.4223 23.4426C61.4223 24.406 62.2284 25.1897 63.2193 25.1897H68.3134C68.2364 24.6627 68.1957 24.1245 68.1957 23.5771C68.1957 22.9363 68.2512 22.3079 68.356 21.6956ZM61.4223 28.2806C61.4223 29.2439 62.2284 30.0276 63.2193 30.0276H70.2539C69.5109 28.9758 68.9443 27.7977 68.5956 26.5335H63.2193C62.2284 26.5335 61.4223 27.3172 61.4223 28.2806ZM69.578 23.5771C69.578 29.1347 74.2289 33.6561 79.9455 33.6561C85.662 33.6561 90.3129 29.1347 90.3129 23.5771C90.3129 18.0195 85.662 13.4981 79.9455 13.4981C74.2289 13.4981 69.578 18.0195 69.578 23.5771ZM78.1824 21.2802C78.1824 22.0967 78.9718 22.7609 79.9421 22.7609C81.7945 22.7609 83.3016 24.1228 83.3016 25.7969C83.3016 27.2219 82.2094 28.42 80.742 28.7452V29.0811C80.742 29.5105 80.3838 29.8588 79.9421 29.8588C79.5005 29.8588 79.1423 29.5105 79.1423 29.0811V28.7452C77.6748 28.42 76.5827 27.2219 76.5827 25.7969C76.5827 25.3675 76.9409 25.0193 77.3826 25.0193C77.8243 25.0193 78.1824 25.3675 78.1824 25.7969C78.1824 26.6134 78.9718 27.2776 79.9421 27.2776C80.9125 27.2776 81.7018 26.6134 81.7018 25.7969C81.7018 24.9804 80.9125 24.3161 79.9421 24.3161C78.0897 24.3161 76.5827 22.9542 76.5827 21.2802C76.5827 19.8553 77.6748 18.6571 79.1423 18.3319V17.9275C79.1423 17.4981 79.5005 17.1499 79.9421 17.1499C80.3838 17.1499 80.742 17.4981 80.742 17.9275V18.3319C82.2094 18.6571 83.3016 19.8553 83.3016 21.2802C83.3016 21.7096 82.9434 22.0579 82.5017 22.0579C82.06 22.0579 81.7018 21.7096 81.7018 21.2802C81.7018 20.4637 80.9125 19.7995 79.9421 19.7995C78.9718 19.7995 78.1824 20.4637 78.1824 21.2802Z" fill="#FF872C"/>
<path d="M83.0839 12.5686L82.8543 12.6677L82.9022 12.7785L83.0188 12.8099L83.0839 12.5686ZM82.7768 12.0197V11.7697H82.2951L82.5724 12.1637L82.7768 12.0197ZM71.3646 31.3715L71.5448 31.1982L71.4711 31.1215H71.3646V31.3715ZM61.2436 25.8616L61.3966 26.0594L61.6522 25.8616L61.3966 25.6639L61.2436 25.8616ZM61.2436 21.0237L61.3966 21.2214L61.6522 21.0237L61.3966 20.8259L61.2436 21.0237ZM61.2436 16.1857L61.3966 16.3835L61.6522 16.1857L61.3966 15.988L61.2436 16.1857ZM65.0218 10.6759V10.9259H65.505L65.2259 10.5315L65.0218 10.6759ZM65.0218 7.18181L65.2259 7.32619L65.5049 6.93181H65.0218V7.18181ZM79.0413 5.83794L78.8373 5.69355L78.5582 6.08794H79.0413V5.83794ZM71.6309 15.5138V15.7638H71.7325L71.8053 15.6928L71.6309 15.5138ZM80.9369 12.1953L80.9165 12.4444L81.0434 11.9691L80.9369 12.1953ZM70.4499 16.8577L70.6498 17.0078L70.9502 16.6077H70.4499V16.8577ZM68.6734 20.3517V20.6017H68.8588L68.9126 20.4243L68.6734 20.3517ZM68.356 21.6956L68.6024 21.7378L68.6524 21.4456H68.356V21.6956ZM68.3134 25.1897V25.4397H68.6025L68.5607 25.1536L68.3134 25.1897ZM70.2539 30.0276V30.2776H70.7365L70.4581 29.8834L70.2539 30.0276ZM68.5956 26.5335L68.8366 26.4671L68.7859 26.2835H68.5956V26.5335ZM80.742 28.7452L80.6879 28.5011L80.492 28.5445V28.7452H80.742ZM79.1423 28.7452H79.3923V28.5445L79.1964 28.5011L79.1423 28.7452ZM79.1423 18.3319L79.1964 18.576L79.3923 18.5326V18.3319H79.1423ZM80.742 18.3319H80.492V18.5326L80.6879 18.576L80.742 18.3319ZM83.3134 12.4695C83.2225 12.2589 83.111 12.0602 82.9812 11.8758L82.5724 12.1637C82.6824 12.3199 82.777 12.4886 82.8543 12.6677L83.3134 12.4695ZM91.9452 23.5771C91.9452 18.2145 88.2107 13.6928 83.149 12.3272L83.0188 12.8099C87.8768 14.1206 91.4452 18.4552 91.4452 23.5771H91.9452ZM79.9455 35.25C86.5556 35.25 91.9452 30.0204 91.9452 23.5771H91.4452C91.4452 29.731 86.2929 34.75 79.9455 34.75V35.25ZM71.1844 31.5448C73.376 33.8237 76.4931 35.25 79.9455 35.25V34.75C76.6329 34.75 73.6448 33.3819 71.5448 31.1982L71.1844 31.5448ZM63.2193 31.6215H71.3646V31.1215H63.2193V31.6215ZM59.79 28.2806C59.79 30.1295 61.3349 31.6215 63.2193 31.6215V31.1215C61.5976 31.1215 60.29 29.8402 60.29 28.2806H59.79ZM61.0907 25.6639C60.301 26.2746 59.79 27.2192 59.79 28.2806H60.29C60.29 27.3844 60.7208 26.582 61.3966 26.0594L61.0907 25.6639ZM59.79 23.4426C59.79 24.5041 60.301 25.4486 61.0907 26.0594L61.3966 25.6639C60.7208 25.1412 60.29 24.3388 60.29 23.4426H59.79ZM61.0907 20.8259C60.301 21.4367 59.79 22.3812 59.79 23.4426H60.29C60.29 22.5465 60.7208 21.7441 61.3966 21.2214L61.0907 20.8259ZM59.79 18.6047C59.79 19.6661 60.301 20.6107 61.0907 21.2214L61.3966 20.8259C60.7208 20.3033 60.29 19.5009 60.29 18.6047H59.79ZM61.0907 15.988C60.301 16.5987 59.79 17.5433 59.79 18.6047H60.29C60.29 17.7085 60.7208 16.9062 61.3966 16.3835L61.0907 15.988ZM59.79 13.7668C59.79 14.8282 60.301 15.7727 61.0907 16.3835L61.3966 15.988C60.7208 15.4653 60.29 14.663 60.29 13.7668H59.79ZM63.2193 10.4259C61.3349 10.4259 59.79 11.9178 59.79 13.7668H60.29C60.29 12.2071 61.5976 10.9259 63.2193 10.9259V10.4259ZM65.0218 10.4259H63.2193V10.9259H65.0218V10.4259ZM64.2134 8.92884C64.2134 9.63092 64.4374 10.2827 64.8178 10.8203L65.2259 10.5315C64.9024 10.0743 64.7134 9.52265 64.7134 8.92884H64.2134ZM64.8178 7.03742C64.4375 7.57498 64.2134 8.22674 64.2134 8.92884H64.7134C64.7134 8.33504 64.9025 7.78337 65.2259 7.32619L64.8178 7.03742ZM59.487 7.43181H65.0218V6.93181H59.487V7.43181ZM56.0577 4.0909C56.0577 5.93987 57.6026 7.43181 59.487 7.43181V6.93181C57.8653 6.93181 56.5577 5.65053 56.5577 4.0909H56.0577ZM59.487 0.75C57.6026 0.75 56.0577 2.24193 56.0577 4.0909H56.5577C56.5577 2.53128 57.8653 1.25 59.487 1.25V0.75ZM76.4205 0.75H59.487V1.25H76.4205V0.75ZM79.8498 4.0909C79.8498 2.24193 78.3049 0.75 76.4205 0.75V1.25C78.0421 1.25 79.3498 2.53128 79.3498 4.0909H79.8498ZM79.2454 5.98232C79.6257 5.44476 79.8498 4.793 79.8498 4.0909H79.3498C79.3498 4.6847 79.1607 5.23637 78.8373 5.69355L79.2454 5.98232ZM84.5762 5.58794H79.0413V6.08794H84.5762V5.58794ZM88.0055 8.92884C88.0055 7.07987 86.4606 5.58794 84.5762 5.58794V6.08794C86.1978 6.08794 87.5055 7.36921 87.5055 8.92884H88.0055ZM84.5762 12.2697C86.4606 12.2697 88.0055 10.7778 88.0055 8.92884H87.5055C87.5055 10.4885 86.1978 11.7697 84.5762 11.7697V12.2697ZM82.7768 12.2697H84.5762V11.7697H82.7768V12.2697ZM84.5762 7.43181C85.4357 7.43181 86.1232 8.11022 86.1232 8.92884H86.6232C86.6232 7.82089 85.6985 6.93181 84.5762 6.93181V7.43181ZM67.6427 7.43181H84.5762V6.93181H67.6427V7.43181ZM66.0957 8.92884C66.0957 8.11022 66.7832 7.43181 67.6427 7.43181V6.93181C66.5204 6.93181 65.5957 7.82089 65.5957 8.92884H66.0957ZM67.6427 10.4259C66.7832 10.4259 66.0957 9.74746 66.0957 8.92884H65.5957C65.5957 10.0368 66.5204 10.9259 67.6427 10.9259V10.4259ZM80.1527 10.4259H67.6427V10.9259H80.1527V10.4259ZM84.5762 10.4259H80.1527V10.9259H84.5762V10.4259ZM86.1232 8.92884C86.1232 9.74746 85.4357 10.4259 84.5762 10.4259V10.9259C85.6985 10.9259 86.6232 10.0368 86.6232 8.92884H86.1232ZM59.487 5.58794C58.6275 5.58794 57.94 4.90952 57.94 4.0909H57.44C57.44 5.19886 58.3647 6.08794 59.487 6.08794V5.58794ZM76.4205 5.58794H59.487V6.08794H76.4205V5.58794ZM77.9675 4.0909C77.9675 4.90952 77.28 5.58794 76.4205 5.58794V6.08794C77.5428 6.08794 78.4675 5.19886 78.4675 4.0909H77.9675ZM76.4205 2.59387C77.28 2.59387 77.9675 3.27228 77.9675 4.0909H78.4675C78.4675 2.98295 77.5428 2.09387 76.4205 2.09387V2.59387ZM59.487 2.59387H76.4205V2.09387H59.487V2.59387ZM57.94 4.0909C57.94 3.27228 58.6275 2.59387 59.487 2.59387V2.09387C58.3647 2.09387 57.44 2.98295 57.44 4.0909H57.94ZM63.2193 12.2697H80.1527V11.7697H63.2193V12.2697ZM61.6723 13.7668C61.6723 12.9482 62.3598 12.2697 63.2193 12.2697V11.7697C62.0971 11.7697 61.1723 12.6588 61.1723 13.7668H61.6723ZM63.2193 15.2638C62.3598 15.2638 61.6723 14.5854 61.6723 13.7668H61.1723C61.1723 14.8747 62.0971 15.7638 63.2193 15.7638V15.2638ZM71.6309 15.2638H63.2193V15.7638H71.6309V15.2638ZM79.9455 11.9042C76.6338 11.9042 73.6301 13.2163 71.4564 15.3348L71.8053 15.6928C73.8883 13.6628 76.7678 12.4042 79.9455 12.4042V11.9042ZM80.9572 11.9461C80.6239 11.9189 80.2866 11.9042 79.9455 11.9042V12.4042C80.2722 12.4042 80.596 12.4183 80.9165 12.4444L80.9572 11.9461ZM80.1527 12.2697C80.3933 12.2697 80.6236 12.3241 80.8303 12.4214L81.0434 11.9691C80.7719 11.8412 80.469 11.7697 80.1527 11.7697V12.2697ZM63.2193 17.1077H70.4499V16.6077H63.2193V17.1077ZM61.6723 18.6047C61.6723 17.7861 62.3598 17.1077 63.2193 17.1077V16.6077C62.097 16.6077 61.1723 17.4968 61.1723 18.6047H61.6723ZM63.2193 20.1017C62.3598 20.1017 61.6723 19.4234 61.6723 18.6047H61.1723C61.1723 19.7127 62.097 20.6017 63.2193 20.6017V20.1017ZM68.6734 20.1017H63.2193V20.6017H68.6734V20.1017ZM70.2499 16.7076C69.4483 17.7753 68.8281 18.9802 68.4341 20.2792L68.9126 20.4243C69.2892 19.1827 69.8822 18.0301 70.6498 17.0078L70.2499 16.7076ZM63.2193 21.9456H68.356V21.4456H63.2193V21.9456ZM61.6723 23.4426C61.6723 22.624 62.3598 21.9456 63.2193 21.9456V21.4456C62.097 21.4456 61.1723 22.3346 61.1723 23.4426H61.6723ZM63.2193 24.9397C62.3598 24.9397 61.6723 24.2613 61.6723 23.4426H61.1723C61.1723 24.5507 62.097 25.4397 63.2193 25.4397V24.9397ZM68.3134 24.9397H63.2193V25.4397H68.3134V24.9397ZM67.9457 23.5771C67.9457 24.1369 67.9874 24.6872 68.066 25.2258L68.5607 25.1536C68.4855 24.6382 68.4457 24.112 68.4457 23.5771H67.9457ZM68.1096 21.6534C68.0024 22.2794 67.9457 22.9218 67.9457 23.5771H68.4457C68.4457 22.9507 68.4999 22.3365 68.6024 21.7378L68.1096 21.6534ZM63.2193 29.7776C62.3598 29.7776 61.6723 29.0993 61.6723 28.2806H61.1723C61.1723 29.3886 62.097 30.2776 63.2193 30.2776V29.7776ZM70.2539 29.7776H63.2193V30.2776H70.2539V29.7776ZM68.3546 26.6C68.7112 27.8927 69.2905 29.0971 70.0497 30.1718L70.4581 29.8834C69.7313 28.8545 69.1774 27.7026 68.8366 26.4671L68.3546 26.6ZM63.2193 26.7835H68.5956V26.2835H63.2193V26.7835ZM61.6723 28.2806C61.6723 27.4619 62.3598 26.7835 63.2193 26.7835V26.2835C62.097 26.2835 61.1723 27.1726 61.1723 28.2806H61.6723ZM79.9455 33.4061C74.3602 33.4061 69.828 28.99 69.828 23.5771H69.328C69.328 29.2794 74.0975 33.9061 79.9455 33.9061V33.4061ZM90.0629 23.5771C90.0629 28.99 85.5307 33.4061 79.9455 33.4061V33.9061C85.7934 33.9061 90.5629 29.2794 90.5629 23.5771H90.0629ZM79.9455 13.7481C85.5307 13.7481 90.0629 18.1642 90.0629 23.5771H90.5629C90.5629 17.8748 85.7934 13.2481 79.9455 13.2481V13.7481ZM69.828 23.5771C69.828 18.1642 74.3602 13.7481 79.9455 13.7481V13.2481C74.0975 13.2481 69.328 17.8748 69.328 23.5771H69.828ZM79.9421 22.5109C79.0677 22.5109 78.4324 21.9199 78.4324 21.2802H77.9324C77.9324 22.2734 78.8759 23.0109 79.9421 23.0109V22.5109ZM83.5516 25.7969C83.5516 23.9615 81.9082 22.5109 79.9421 22.5109V23.0109C81.6809 23.0109 83.0516 24.2841 83.0516 25.7969H83.5516ZM80.7961 28.9893C82.3584 28.6431 83.5516 27.358 83.5516 25.7969H83.0516C83.0516 27.0857 82.0605 28.197 80.6879 28.5011L80.7961 28.9893ZM80.992 29.0811V28.7452H80.492V29.0811H80.992ZM79.9421 30.1088C80.5152 30.1088 80.992 29.6552 80.992 29.0811H80.492C80.492 29.3659 80.2524 29.6088 79.9421 29.6088V30.1088ZM78.8923 29.0811C78.8923 29.6552 79.3691 30.1088 79.9421 30.1088V29.6088C79.6318 29.6088 79.3923 29.3659 79.3923 29.0811H78.8923ZM78.8923 28.7452V29.0811H79.3923V28.7452H78.8923ZM76.3327 25.7969C76.3327 27.358 77.5259 28.6431 79.0882 28.9893L79.1964 28.5011C77.8238 28.197 76.8327 27.0857 76.8327 25.7969H76.3327ZM77.3826 24.7693C76.8095 24.7693 76.3327 25.2228 76.3327 25.7969H76.8327C76.8327 25.5121 77.0723 25.2693 77.3826 25.2693V24.7693ZM78.4324 25.7969C78.4324 25.2228 77.9556 24.7693 77.3826 24.7693V25.2693C77.6929 25.2693 77.9324 25.5121 77.9324 25.7969H78.4324ZM79.9421 27.0276C79.0677 27.0276 78.4324 26.4366 78.4324 25.7969H77.9324C77.9324 26.7901 78.8759 27.5276 79.9421 27.5276V27.0276ZM81.4518 25.7969C81.4518 26.4366 80.8166 27.0276 79.9421 27.0276V27.5276C81.0084 27.5276 81.9518 26.7901 81.9518 25.7969H81.4518ZM79.9421 24.5661C80.8166 24.5661 81.4518 25.1571 81.4518 25.7969H81.9518C81.9518 24.8036 81.0084 24.0661 79.9421 24.0661V24.5661ZM76.3327 21.2802C76.3327 23.1155 77.9761 24.5661 79.9421 24.5661V24.0661C78.2034 24.0661 76.8327 22.7929 76.8327 21.2802H76.3327ZM79.0882 18.0878C77.5259 18.4341 76.3327 19.7191 76.3327 21.2802H76.8327C76.8327 19.9915 77.8238 18.8802 79.1964 18.576L79.0882 18.0878ZM78.8923 17.9275V18.3319H79.3923V17.9275H78.8923ZM79.9421 16.8999C79.3691 16.8999 78.8923 17.3534 78.8923 17.9275H79.3923C79.3923 17.6427 79.6318 17.3999 79.9421 17.3999V16.8999ZM80.992 17.9275C80.992 17.3534 80.5152 16.8999 79.9421 16.8999V17.3999C80.2524 17.3999 80.492 17.6427 80.492 17.9275H80.992ZM80.992 18.3319V17.9275H80.492V18.3319H80.992ZM83.5516 21.2802C83.5516 19.7191 82.3584 18.4341 80.7961 18.0878L80.6879 18.576C82.0605 18.8802 83.0516 19.9915 83.0516 21.2802H83.5516ZM82.5017 22.3079C83.0748 22.3079 83.5516 21.8543 83.5516 21.2802H83.0516C83.0516 21.565 82.812 21.8079 82.5017 21.8079V22.3079ZM81.4518 21.2802C81.4518 21.8543 81.9286 22.3079 82.5017 22.3079V21.8079C82.1914 21.8079 81.9518 21.565 81.9518 21.2802H81.4518ZM79.9421 20.0495C80.8166 20.0495 81.4518 20.6405 81.4518 21.2802H81.9518C81.9518 20.287 81.0084 19.5495 79.9421 19.5495V20.0495ZM78.4324 21.2802C78.4324 20.6405 79.0677 20.0495 79.9421 20.0495V19.5495C78.8759 19.5495 77.9324 20.287 77.9324 21.2802H78.4324Z" fill="#FF872C"/>
<path d="M44.1032 63.3937H46.5729V53.8837H48.7634V51.9526H46.5729V51.1428C46.5729 49.8346 47.0883 49.3363 48.5916 49.3363V47.3637C45.4991 47.3637 44.1032 48.5057 44.1032 51.1428V51.9526H42.7073V53.8837H44.1032V63.3937Z" fill="white"/>
<path d="M50.933 63.3937H53.3812V51.9526H50.933V63.3937ZM52.1786 50.4368C53.0376 50.4368 53.7248 49.7723 53.7248 48.921C53.7248 48.0697 53.0376 47.4052 52.1786 47.4052C51.2981 47.4052 50.6109 48.0697 50.6109 48.921C50.6109 49.7723 51.2981 50.4368 52.1786 50.4368Z" fill="white"/>
<path d="M64.9923 63.3937H67.419V56.6453C67.419 53.4476 65.3359 51.7657 62.5656 51.7657C61.1482 51.7657 59.8382 52.3263 59.0436 53.2607V51.9526H56.5955V63.3937H59.0436V56.9983C59.0436 54.9011 60.2248 53.8214 62.0287 53.8214C63.8111 53.8214 64.9923 54.9011 64.9923 56.9983V63.3937Z" fill="white"/>
<path d="M69.7257 57.6212C69.7257 61.1511 72.1954 63.5806 75.2663 63.5806C77.2421 63.5806 78.6594 62.6669 79.4111 61.691V63.3937H81.8807V51.9526H79.4111V53.6137C78.6809 52.6793 77.3065 51.7657 75.3093 51.7657C72.1954 51.7657 69.7257 54.0913 69.7257 57.6212ZM79.4111 57.6628C79.4111 60.1337 77.6716 61.5249 75.8247 61.5249C73.9993 61.5249 72.2383 60.0922 72.2383 57.6212C72.2383 55.1503 73.9993 53.8214 75.8247 53.8214C77.6716 53.8214 79.4111 55.2126 79.4111 57.6628Z" fill="white"/>
<path d="M93.4931 63.3937H95.9198V56.6453C95.9198 53.4476 93.8367 51.7657 91.0664 51.7657C89.6491 51.7657 88.3391 52.3263 87.5445 53.2607V51.9526H85.0963V63.3937H87.5445V56.9983C87.5445 54.9011 88.7256 53.8214 90.5296 53.8214C92.312 53.8214 93.4931 54.9011 93.4931 56.9983V63.3937Z" fill="white"/>
<path d="M98.2266 57.6628C98.2266 61.255 100.632 63.5806 104.025 63.5806C106.924 63.5806 108.814 62.0232 109.48 59.7807H106.838C106.387 60.9643 105.485 61.5872 104.025 61.5872C102.049 61.5872 100.739 60.1752 100.739 57.6628C100.739 55.171 102.049 53.7591 104.025 53.7591C105.485 53.7591 106.43 54.4651 106.838 55.5656H109.48C108.814 53.1569 106.924 51.7657 104.025 51.7657C100.632 51.7657 98.2266 54.0913 98.2266 57.6628Z" fill="white"/>
<path d="M116.902 53.7591C118.727 53.7591 120.166 54.8803 120.209 56.6453H113.659C113.917 54.8388 115.248 53.7591 116.902 53.7591ZM122.442 59.9883H119.801C119.35 60.8812 118.512 61.5872 117.009 61.5872C115.205 61.5872 113.809 60.4452 113.637 58.5556H122.679C122.743 58.1611 122.764 57.7873 122.764 57.3928C122.764 54.029 120.381 51.7657 117.009 51.7657C113.509 51.7657 111.103 54.0705 111.103 57.6628C111.103 61.255 113.616 63.5806 117.009 63.5806C119.908 63.5806 121.777 61.9817 122.442 59.9883Z" fill="white"/>
<path d="M134 60.196C133.871 56.0639 127.192 57.3513 127.192 55.0465C127.192 54.2782 127.88 53.7591 129.19 53.7591C130.521 53.7591 131.316 54.4443 131.401 55.441H133.85C133.721 53.1569 131.96 51.7657 129.275 51.7657C126.484 51.7657 124.723 53.24 124.723 55.0672C124.723 59.2616 131.595 57.9742 131.595 60.2168C131.595 61.0058 130.843 61.5872 129.426 61.5872C128.073 61.5872 127.149 60.8189 127.063 59.8845H124.529C124.637 61.961 126.634 63.5806 129.469 63.5806C132.261 63.5806 134 62.1271 134 60.196Z" fill="white"/>
<path d="M23.1291 51.8C23.9957 51.8 24.7691 51.98 25.4491 52.34C26.1424 52.7 26.6824 53.2333 27.0691 53.94C27.4691 54.6467 27.6691 55.5 27.6691 56.5V63H25.4091V56.84C25.4091 55.8533 25.1624 55.1 24.6691 54.58C24.1757 54.0467 23.5024 53.78 22.6491 53.78C21.7957 53.78 21.1157 54.0467 20.6091 54.58C20.1157 55.1 19.8691 55.8533 19.8691 56.84V63H17.6091V56.84C17.6091 55.8533 17.3624 55.1 16.8691 54.58C16.3757 54.0467 15.7024 53.78 14.8491 53.78C13.9957 53.78 13.3157 54.0467 12.8091 54.58C12.3157 55.1 12.0691 55.8533 12.0691 56.84V63H9.78906V51.98H12.0691V53.24C12.4424 52.7867 12.9157 52.4333 13.4891 52.18C14.0624 51.9267 14.6757 51.8 15.3291 51.8C16.2091 51.8 16.9957 51.9867 17.6891 52.36C18.3824 52.7333 18.9157 53.2733 19.2891 53.98C19.6224 53.3133 20.1424 52.7867 20.8491 52.4C21.5557 52 22.3157 51.8 23.1291 51.8ZM40.4903 51.98L33.7303 68.18H31.3703L33.6103 62.82L29.2703 51.98H31.8103L34.9103 60.38L38.1303 51.98H40.4903Z" fill="white"/>
</svg>
